<?xml version="1.0" encoding="UTF-8" standalone="no"?>
<!-- Generator: Adobe Illustrator 21.0.2, SVG Export Plug-In . SVG Version: 6.00 Build 0)  -->

<svg
   version="1.1"
   id="Layer_1"
   x="0px"
   y="0px"
   viewBox="0 0 24 24"
   style="enable-background:new 0 0 24 24;"
   xml:space="preserve"
   sodipodi:docname="icon.svg"
   inkscape:version="1.3 (0e150ed, 2023-07-21)"
   xmlns:inkscape="http://www.inkscape.org/namespaces/inkscape"
   xmlns:sodipodi="http://sodipodi.sourceforge.net/DTD/sodipodi-0.dtd"
   xmlns="http://www.w3.org/2000/svg"
   xmlns:svg="http://www.w3.org/2000/svg"><defs
   id="defs1" /><sodipodi:namedview
   id="namedview1"
   pagecolor="#ffffff"
   bordercolor="#666666"
   borderopacity="1.0"
   inkscape:showpageshadow="2"
   inkscape:pageopacity="0.0"
   inkscape:pagecheckerboard="0"
   inkscape:deskcolor="#d1d1d1"
   inkscape:zoom="7.1051453"
   inkscape:cx="12.737248"
   inkscape:cy="-12.80762"
   inkscape:window-width="1920"
   inkscape:window-height="1027"
   inkscape:window-x="0"
   inkscape:window-y="25"
   inkscape:window-maximized="0"
   inkscape:current-layer="Layer_1" />&#10;<style
   type="text/css"
   id="style1">&#10;	.st0{fill:none;}&#10;</style>&#10;<path
   id="path1"
   style="fill:#f24e24;fill-opacity:1;stroke-width:1.50052"
   d="m 11.800547,1.3469735 c -2.7009325,0 -5.2529906,1.0509514 -7.2036631,2.8515715 l 3.0010373,3.0010374 c 1.200414,-0.90031 2.5520568,-1.5005187 4.2026258,-1.5005187 3.60124,0 6.450472,2.8492315 6.450472,6.4504713 0,3.601242 -2.849232,6.453404 -6.450472,6.453404 -3.0010365,0 -5.1023515,-1.801798 -5.85261,-4.202626 h 4.882547 l -0.0058,2.728483 5.034945,-5.128727 v -0.003 l -5.034945,-5.1257953 0.0088,3.4787423 H 1.7453097 c -0.90031042,3.901344 1.0521294,12.30308 10.0552353,12.30308 5.852017,0 10.653096,-4.801079 10.653096,-10.653096 0,-5.8520171 -4.801079,-10.6530959 -10.653096,-10.6530959 z" />&#10;&#10;</svg>
